<?xml version="1.0" encoding="utf-8"?>
<!-- Generator: Adobe Illustrator 15.1.0, SVG Export Plug-In . SVG Version: 6.00 Build 0)  -->
<!DOCTYPE svg PUBLIC "-//W3C//DTD SVG 1.1//EN" "http://www.w3.org/Graphics/SVG/1.1/DTD/svg11.dtd">
<svg version="1.1" id="Capa_1" xmlns="http://www.w3.org/2000/svg" xmlns:xlink="http://www.w3.org/1999/xlink" x="0px" y="0px"
	 width="24.086px" height="24.086px" viewBox="155.015 175.016 24.086 24.086"
	 enable-background="new 155.015 175.016 24.086 24.086" xml:space="preserve">
<g>
	<path id="LinkedIn__x28_alt_x29_" fill="#26baff" d="M177.323,175.016h-20.528c-0.983,0-1.779,0.772-1.779,1.726v20.634
		c0,0.953,0.797,1.727,1.779,1.727h20.528c0.982,0,1.778-0.773,1.778-1.727v-20.634
		C179.101,175.788,178.305,175.016,177.323,175.016z M162.318,195.177h-3.64v-10.875h3.64V195.177z M160.498,182.817h-0.024
		c-1.221,0-2.012-0.835-2.012-1.88c0-1.066,0.814-1.878,2.059-1.878s2.01,0.812,2.035,1.878
		C162.556,181.983,161.766,182.817,160.498,182.817z M175.436,195.177h-3.639v-5.818c0-1.462-0.526-2.459-1.843-2.459
		c-1.006,0-1.604,0.673-1.866,1.322c-0.097,0.232-0.121,0.557-0.121,0.881v6.074h-3.638c0,0,0.048-9.854,0-10.875h3.639v1.542
		c0.482-0.741,1.346-1.797,3.277-1.797c2.395,0,4.19,1.553,4.19,4.895V195.177L175.436,195.177z M167.944,185.879
		c0.007-0.01,0.016-0.022,0.024-0.034v0.034H167.944z"/>
</g>
</svg>
